PathFileType  4	(X/Y/Z) C:\Users\antoi\Documents\MyRepositories\mobilecap\ResultsAnalysis
DataRate	CameraRate	NumFrames	NumMarkers	Units	OrigDataRate	OrigDataStartFrame	OrigNumFrames
100.0	100.0	4	51	mm	100.0	66	260
Frame#	Time	r_knee			r_shank_antsup			r_ankle			r_calc			r_5meta			r_toe			L_knee			L_shank_antsup			L_ankle			L_calc			L_5meta			L_toe			r_sh2			r_sh3			r_sh4			L_sh2			L_sh3			r_thigh1			r_thigh2			r_thigh3			r_thigh4			r_thigh5			L_thigh1			L_thigh2			L_thigh3			L_thigh4			r.ASIS			r.PSIS			L.ASIS			L.PSIS			C7			R_Shoulder			L_Shoulder			R_Sternum			L_Sternum			R_humerus			R_elbow_med			R_elbow_lat			R_forearm			R_wrist_radius			R_wrist_ulna			L_humerus			L_elbow_med			L_elbow_lat			L_forearm			L_wrist_radius			L_wrist_ulna			R_HJC			L_HJC			R_HJC_reg			L_HJC_reg			
		X1	Y1	Z1	X2	Y2	Z2	X3	Y3	Z3	X4	Y4	Z4	X5	Y5	Z5	X6	Y6	Z6	X7	Y7	Z7	X8	Y8	Z8	X9	Y9	Z9	X10	Y10	Z10	X11	Y11	Z11	X12	Y12	Z12	X13	Y13	Z13	X14	Y14	Z14	X15	Y15	Z15	X16	Y16	Z16	X17	Y17	Z17	X18	Y18	Z18	X19	Y19	Z19	X20	Y20	Z20	X21	Y21	Z21	X22	Y22	Z22	X23	Y23	Z23	X24	Y24	Z24	X25	Y25	Z25	X26	Y26	Z26	X27	Y27	Z27	X28	Y28	Z28	X29	Y29	Z29	X30	Y30	Z30	X31	Y31	Z31	X32	Y32	Z32	X33	Y33	Z33	X34	Y34	Z34	X35	Y35	Z35	X36	Y36	Z36	X37	Y37	Z37	X38	Y38	Z38	X39	Y39	Z39	X40	Y40	Z40	X41	Y41	Z41	X42	Y42	Z42	X43	Y43	Z43	X44	Y44	Z44	X45	Y45	Z45	X46	Y46	Z46	X47	Y47	Z47	X48	Y48	Z48	X49	Y49	Z49	X50	Y50	Z50	X51	Y51	Z51	

66	0.65000000	-1108.18157	773.68684	-448.95600	-1095.01419	668.27935	-459.70002	-1279.79374	400.11034	-470.32960	-1344.67626	365.12953	-517.30312	-1162.99436	350.84493	-429.37011	-1130.93151	379.67112	-483.48237	-1105.72771	781.31596	-724.31619	-1085.29069	683.98286	-708.58798	-1268.51109	403.93348	-706.51461	-1343.96635	361.45588	-663.28207	-1165.20364	350.52643	-744.19489	-1120.58984	375.10034	-687.45780	-1144.50943	566.43464	-463.37486	-1152.66159	693.69347	-417.04995	-1207.35915	592.02271	-415.82593	-1152.82351	726.83933	-751.52075	-1205.31416	616.79981	-757.51064	-1112.76423	1053.35996	-409.50664	-1083.16605	948.43905	-432.98092	-1126.00255	905.74333	-400.97447	-1220.00094	1016.38442	-392.23827	-1181.62181	908.90376	-414.87484	-1092.50427	1034.79562	-736.15372	-1052.23174	903.13377	-710.94275	-1187.44492	999.32535	-777.20819	-1150.63369	875.11543	-747.76376	-1098.04832	1210.95560	-453.61674	-1285.46102	1307.14440	-529.81629	-1104.20921	1218.67258	-706.21786	-1285.06350	1308.91227	-626.10611	-1039.24643	1712.41775	-563.68213	-984.62597	1642.91709	-397.39967	-959.40099	1640.57918	-708.93867	-962.13461	1589.85014	-535.44214	-959.89538	1592.06395	-580.14014	-1001.11739	1505.98266	-346.93511	-1161.70008	1357.60660	-369.51638	-1141.33030	1360.77278	-308.57886	-1107.95321	1282.62723	-288.91594	-1088.11779	1116.44162	-321.54412	-1127.15971	1119.90182	-290.72865	-985.16912	1499.33835	-763.98614	-1147.42358	1361.23975	-740.89966	-1115.39795	1358.10515	-810.88710	-1097.19403	1286.87534	-824.11386	-1130.31108	1111.41938	-816.20649	-1167.18973	1132.57146	-845.87567	-1205.04866	1154.40709	-479.54057	-1205.94943	1159.58988	-669.03031	-1193.64866	1162.51871	-490.52142	-1192.96034	1165.58128	-657.33559	
67	0.66000000	-1104.15631	771.74211	-449.20020	-1091.38669	666.06015	-460.31278	-1279.49727	400.45437	-470.36845	-1344.57246	365.16739	-517.26145	-1162.97304	350.85678	-429.34788	-1130.81689	379.45917	-483.49180	-1100.79322	779.16923	-724.36314	-1081.00484	681.57680	-708.56942	-1268.16867	403.81963	-706.01185	-1343.80929	361.64951	-662.99303	-1165.21629	350.53027	-744.13969	-1120.41097	374.79417	-687.38735	-1142.01850	564.70587	-463.82625	-1148.97223	691.63924	-417.58378	-1204.75950	591.03379	-415.61606	-1147.80675	725.27918	-751.95221	-1201.80470	615.87270	-757.58854	-1112.11577	1050.81441	-408.74565	-1081.27620	946.41684	-432.53827	-1123.75381	903.05375	-401.03622	-1218.88141	1013.07248	-392.50330	-1179.34896	905.83134	-415.37377	-1090.66025	1032.89060	-736.21910	-1048.58567	901.78752	-711.23422	-1184.19777	995.92851	-777.63983	-1146.66597	872.42194	-747.97191	-1097.75135	1206.89487	-453.46007	-1284.53859	1304.20067	-529.82776	-1103.38118	1214.78239	-705.44417	-1284.02173	1306.00608	-626.16259	-1034.42307	1707.26335	-562.73265	-980.22643	1636.64988	-396.93054	-954.46035	1634.40347	-707.46149	-959.57612	1583.46851	-535.47090	-956.00993	1586.26016	-579.07501	-994.47759	1499.27286	-347.29435	-1151.11240	1346.89128	-369.42544	-1130.38431	1350.09772	-308.64292	-1094.16801	1272.78166	-290.30277	-1068.86781	1108.00632	-324.96973	-1107.59379	1109.59778	-294.09557	-977.19893	1492.72648	-761.28470	-1136.22388	1350.67611	-740.30407	-1102.52061	1347.39825	-809.10758	-1081.60753	1276.52631	-820.55617	-1107.66444	1100.22529	-810.33999	-1144.74580	1119.23629	-840.85453	-1205.09063	1150.99059	-479.38946	-1205.52227	1156.23932	-668.87826	-1193.42009	1159.22078	-490.38334	-1192.52808	1162.33915	-656.78476	
68	0.67000000	-1099.79681	769.38275	-449.73028	-1087.60290	663.73455	-460.96941	-1279.24653	400.72393	-470.32048	-1344.49736	365.20795	-517.28508	-1162.95059	350.82819	-429.32431	-1130.70644	379.18615	-483.52882	-1095.70864	776.85131	-724.51947	-1076.52791	679.03325	-708.40197	-1267.76661	403.81744	-705.36988	-1343.57474	361.99169	-662.65142	-1165.23100	350.52980	-744.10448	-1120.12878	374.39488	-687.33695	-1139.59844	562.92998	-464.31532	-1145.16883	689.54508	-418.08941	-1202.12071	590.06400	-415.58558	-1142.41616	723.72320	-752.60236	-1198.10560	614.68111	-757.53941	-1111.38038	1048.05395	-408.16602	-1079.19776	944.17757	-432.19248	-1121.40371	900.41701	-401.13337	-1217.54288	1009.33514	-392.99572	-1176.82965	902.44760	-415.88305	-1088.45297	1030.86011	-736.24659	-1044.97706	900.27048	-711.54436	-1182.44659	992.86460	-778.50532	-1142.60609	869.43386	-747.98831	-1097.33953	1202.66450	-453.35615	-1283.51060	1301.00070	-529.74911	-1101.89753	1210.83053	-704.59507	-1282.90308	1302.82890	-626.29740	-1029.84034	1702.02262	-561.86138	-975.98380	1630.33991	-396.39729	-949.59823	1628.36183	-706.14767	-957.77859	1576.66857	-536.27131	-952.03779	1580.40732	-577.72671	-987.72205	1492.60780	-347.85911	-1139.69945	1335.56437	-370.21673	-1118.64981	1339.17171	-308.90862	-1079.34200	1262.88366	-292.06135	-1047.93460	1099.93935	-328.71372	-1086.44922	1099.22072	-298.50610	-969.05858	1486.31944	-758.76790	-1123.82269	1339.37524	-738.80021	-1088.85752	1336.74297	-807.49737	-1064.87770	1266.28023	-816.69313	-1082.94753	1089.42345	-803.77799	-1120.26629	1106.05666	-835.10546	-1204.87521	1147.29694	-479.32704	-1204.62108	1152.75231	-668.81041	-1192.78675	1155.85953	-490.24097	-1191.74252	1159.00124	-656.14142	
69	0.68000000	-1095.16914	766.92898	-450.17831	-1083.67772	661.27703	-461.50403	-1279.03494	400.74928	-470.35166	-1344.46674	365.21579	-517.31467	-1162.94331	350.71852	-429.28695	-1130.56601	378.84801	-483.59625	-1090.48623	774.48344	-724.78081	-1071.90189	676.38699	-708.18096	-1267.28782	404.06693	-704.90475	-1343.27771	362.58372	-662.37350	-1165.20879	350.50806	-744.10545	-1119.83337	374.01735	-687.29501	-1137.15377	561.15326	-464.80614	-1140.64826	688.09726	-418.35380	-1199.05192	589.17467	-416.00356	-1136.90137	722.00780	-753.08665	-1194.20144	613.52179	-757.67917	-1110.39122	1045.02258	-407.58210	-1076.80519	942.01265	-431.80253	-1118.82024	897.56007	-401.39476	-1215.99910	1005.09188	-393.75583	-1174.10773	898.83767	-416.49999	-1086.75147	1028.72177	-737.06776	-1041.29011	898.50816	-711.72526	-1181.17688	989.72043	-779.36809	-1138.49688	866.24507	-747.98642	-1096.87760	1198.42459	-453.04066	-1282.37802	1297.63704	-529.73349	-1100.59898	1206.60751	-704.25182	-1281.69928	1299.36532	-626.38818	-1025.45412	1696.71210	-561.17831	-971.99747	1623.99401	-395.78874	-944.89060	1622.34468	-704.87721	-955.37286	1570.30651	-536.37335	-948.33612	1574.58663	-576.36904	-980.85055	1486.08345	-348.41907	-1127.55925	1323.85582	-371.54354	-1106.11704	1328.15691	-309.37671	-1063.53744	1253.27066	-293.98774	-1025.29160	1092.73884	-333.27520	-1063.67223	1089.20183	-303.13553	-960.80137	1480.09533	-756.51079	-1110.23363	1327.49132	-735.96542	-1074.48125	1326.24335	-805.90386	-1046.63935	1256.21092	-812.83054	-1056.16688	1079.29044	-796.29982	-1093.96430	1093.07511	-828.32432	-1204.54308	1143.52474	-479.22345	-1203.79703	1148.99298	-668.70584	-1192.25509	1152.24627	-489.93305	-1191.09004	1155.21241	-655.80754	
